<svg width="512" height="512" viewBox="0 0 512 512" xmlns="http://www.w3.org/2000/svg">
<rect width="512" height="512" fill="#040818"/>
<ellipse cx="256" cy="240" rx="160" ry="170" fill="none" stroke="#F59E0B" stroke-width="1.5" opacity="0.2"/>
<path d="M256 80 L390 128 L390 260 Q390 360 256 400 Q122 360 122 260 L122 128 Z" fill="#0a1020"/>
<path d="M256 96 L374 140 L374 258 Q374 350 256 386 Q138 350 138 258 L138 140 Z" fill="#0d1630"/>
<path d="M256 80 L390 128 L390 260 Q390 360 256 400 Q122 360 122 260 L122 128 Z" fill="none" stroke="#F59E0B" stroke-width="3"/>
<line x1="175" y1="140" x2="337" y2="140" stroke="#F59E0B" stroke-width="1" opacity="0.4"/>
<rect x="218" y="216" width="76" height="60" rx="8" fill="#1e3060" stroke="#F59E0B" stroke-width="2"/>
<path d="M230 216 L230 196 Q230 168 256 168 Q282 168 282 196 L282 216" fill="none" stroke="#F59E0B" stroke-width="3.5" stroke-linecap="round"/>
<circle cx="256" cy="241" r="9" fill="#F59E0B"/>
<rect x="252" y="241" width="8" height="15" rx="3" fill="#F59E0B"/>
<path d="M175 300 L256 330 L337 300" fill="none" stroke="#F59E0B" stroke-width="1.5" opacity="0.5"/>
<text x="256" y="458" text-anchor="middle" font-family="system-ui,sans-serif" font-size="38" font-weight="700" letter-spacing="5" fill="#F59E0B">MUSTAFA.QA</text>
<text x="256" y="490" text-anchor="middle" font-family="system-ui,sans-serif" font-size="13" letter-spacing="4" fill="#64748b">SECURITY PLATFORM</text>
</svg>
